<svg width="38" height="38" viewBox="0 0 38 38" fill="none" xmlns="http://www.w3.org/2000/svg">
<path d="M11.9368 35.6252C26.277 35.6252 34.1216 23.7431 34.1216 13.4569C34.1216 13.1244 34.1216 12.7872 34.1074 12.4547C35.6346 11.3491 36.9528 9.98029 38 8.41243C36.5734 9.04145 35.0616 9.45602 33.5136 9.64268C35.1441 8.66807 36.3653 7.13461 36.9502 5.32731C35.4183 6.23485 33.7417 6.87194 31.9936 7.21068C30.8184 5.95911 29.2633 5.12999 27.5692 4.85173C25.8751 4.57347 24.1365 4.86162 22.6227 5.67153C21.1089 6.48144 19.9044 7.76792 19.1958 9.3317C18.4872 10.8955 18.314 12.6493 18.7031 14.3214C15.6031 14.166 12.5704 13.3607 9.80173 11.9577C7.03302 10.5547 4.59013 8.58544 2.6315 6.17756C1.63718 7.89488 1.33374 9.92626 1.78278 11.8592C2.23183 13.7921 3.39971 15.4817 5.04925 16.5848C3.81316 16.5428 2.60424 16.2109 1.52 15.6158V15.7227C1.52213 17.5217 2.14535 19.2648 3.28433 20.6574C4.4233 22.0499 6.00815 23.0065 7.771 23.3654C7.10187 23.5498 6.41067 23.6417 5.71663 23.6386C5.22734 23.64 4.73903 23.5947 4.25837 23.5032C4.75662 25.0518 5.72677 26.4058 7.03296 27.3756C8.33915 28.3453 9.91594 28.8822 11.5425 28.9111C8.77932 31.0813 5.36608 32.2584 1.8525 32.2527C1.23339 32.2553 0.614705 32.2196 0 32.1458C3.5661 34.4193 7.70758 35.6265 11.9368 35.6252Z" fill="#F26722"/>
</svg>
