<svg width="44" height="44" viewBox="0 0 44 44" fill="none" xmlns="http://www.w3.org/2000/svg">
<path d="M18.9999 5.5C16.3299 5.5 13.7198 6.29176 11.4998 7.77515C9.27972 9.25854 7.5494 11.3669 6.52763 13.8337C5.50585 16.3005 5.23851 19.0149 5.7594 21.6336C6.2803 24.2524 7.56604 26.6578 9.45404 28.5458C11.342 30.4338 13.7475 31.7195 16.3662 32.2404C18.985 32.7613 21.6993 32.494 24.1661 31.4722C26.6329 30.4504 28.7413 28.7201 30.2247 26.5001C31.7081 24.28 32.4998 21.67 32.4998 18.9999C32.4996 15.4196 31.0772 11.986 28.5456 9.45429C26.0139 6.92261 22.5803 5.50023 18.9999 5.5Z" stroke="#F26722" stroke-width="2.75" stroke-miterlimit="10"/>
<path d="M29.0723 29.0718L38.5005 38.5" stroke="#F26722" stroke-width="2.75" stroke-miterlimit="10" stroke-linecap="round"/>
</svg>
