<svg width="38" height="38" viewBox="0 0 38 38" fill="none" xmlns="http://www.w3.org/2000/svg">
<path d="M12.3503 3.1665H25.6503C30.717 3.1665 34.8337 7.28317 34.8337 12.3498V25.6498C34.8337 28.0854 33.8661 30.4212 32.1439 32.1434C30.4217 33.8656 28.0859 34.8332 25.6503 34.8332H12.3503C7.28366 34.8332 3.16699 30.7165 3.16699 25.6498V12.3498C3.16699 9.91427 4.13452 7.57845 5.85673 5.85624C7.57894 4.13403 9.91475 3.1665 12.3503 3.1665ZM12.0337 6.33317C10.5219 6.33317 9.07211 6.93371 8.00315 8.00266C6.93419 9.07162 6.33366 10.5214 6.33366 12.0332V25.9665C6.33366 29.1173 8.88283 31.6665 12.0337 31.6665H25.967C27.4787 31.6665 28.9285 31.066 29.9975 29.997C31.0665 28.9281 31.667 27.4782 31.667 25.9665V12.0332C31.667 8.88234 29.1178 6.33317 25.967 6.33317H12.0337ZM27.3128 8.70817C27.8377 8.70817 28.3411 8.91669 28.7123 9.28786C29.0835 9.65902 29.292 10.1624 29.292 10.6873C29.292 11.2122 29.0835 11.7157 28.7123 12.0868C28.3411 12.458 27.8377 12.6665 27.3128 12.6665C26.7879 12.6665 26.2845 12.458 25.9133 12.0868C25.5422 11.7157 25.3337 11.2122 25.3337 10.6873C25.3337 10.1624 25.5422 9.65902 25.9133 9.28786C26.2845 8.91669 26.7879 8.70817 27.3128 8.70817ZM19.0003 11.0832C21.1 11.0832 23.1136 11.9172 24.5983 13.4019C26.0829 14.8866 26.917 16.9002 26.917 18.9998C26.917 21.0995 26.0829 23.1131 24.5983 24.5978C23.1136 26.0824 21.1 26.9165 19.0003 26.9165C16.9007 26.9165 14.8871 26.0824 13.4024 24.5978C11.9177 23.1131 11.0837 21.0995 11.0837 18.9998C11.0837 16.9002 11.9177 14.8866 13.4024 13.4019C14.8871 11.9172 16.9007 11.0832 19.0003 11.0832ZM19.0003 14.2498C17.7405 14.2498 16.5324 14.7503 15.6416 15.6411C14.7508 16.5319 14.2503 17.7401 14.2503 18.9998C14.2503 20.2596 14.7508 21.4678 15.6416 22.3586C16.5324 23.2494 17.7405 23.7498 19.0003 23.7498C20.2601 23.7498 21.4683 23.2494 22.3591 22.3586C23.2499 21.4678 23.7503 20.2596 23.7503 18.9998C23.7503 17.7401 23.2499 16.5319 22.3591 15.6411C21.4683 14.7503 20.2601 14.2498 19.0003 14.2498Z" fill="#F26722"/>
</svg>
